<svg xmlns="http://www.w3.org/2000/svg" viewBox="0 0 560 110" color="#ffdb00" class="svelte-1xg26gi"><path fill="currentcolor" d="M4.35 105.17c3.61-1.79 3.36-8 3.37-8.76V16.55a7.12 7.12 0 00-2.78-5.94h65.2s-2.8 1.61-2.8 6v81.46c0 1.14.49 5.46 3.37 7zM161.58 105.17c-3.34-2.28-3.2-7.07-3.22-8.16V66.42s18.21 28.7 19.91 32.88c1.87 4.59-.25 5.87-.25 5.87h75s-.76-.5-1.89-1.36a29.77 29.77 0 01-6.69-6.55c-2.66-3.56-30.1-48.12-30.1-48.12s20.66-28.82 23.89-33a29.06 29.06 0 015.87-5.52h-64.24s3.57 2.51.42 7.09-21.9 30.54-21.9 30.54V16.56a7.08 7.08 0 012.85-5.94H97.72a7.13 7.13 0 012.77 5.94c.05 3.06 0 78.34 0 79.86 0 .81.24 7-3.37 8.76zM266.2 10.61a7.13 7.13 0 012.8 5.94v79.86c0 .81.24 7-3.37 8.76H375V73.05a10.27 10.27 0 01-7.41 3.08h-42.65v-7.54h30.74c1.86 0 7 .59 8.32 2.33V42.08c-1.38 1.93-6.57 2.38-8.28 2.38h-30.8v-7.55h40.09a14.8 14.8 0 019.99 4.24V10.61zM476.22 105.17s2.88-3.23 1.87-7.14a94.13 94.13 0 00-4.59-11.56h-28.05s-3.52 7.45-4.59 11.56c-1 3.91 1.87 7.14 1.87 7.14H386a22.4 22.4 0 005.23-7.31c2-4.59 29-76.67 30.07-79.27 2-5-1.31-7.93-1.31-7.93h90.23a7.71 7.71 0 00-1.49 8.06c1.69 5.1 30.51 76.54 31.81 79.14a19.37 19.37 0 006 7.31zM467 69.31s-6.75-16.68-7-17.31a16.53 16.53 0 01-1-4.86h-.1A16.53 16.53 0 01458 52c-.26.63-7 17.31-7 17.31zM522.87 19.68a16 16 0 1116 15.8 15.74 15.74 0 01-16-15.8m16 13.18c7.13 0 12.76-5.59 12.76-13.18a12.8 12.8 0 10-25.6 0c0 7.59 5.63 13.18 12.84 13.18m-3.33-4.05h-2.74V10.64h6.92c4.29 0 6.42 1.58 6.42 5.17 0 3.25-2 4.67-4.71 5l5.16 8h-3.08l-4.79-7.88h-3.17zm3.29-10.21c2.34 0 4.42-.17 4.42-3 0-2.25-2-2.67-4-2.67h-3.75v5.67z"/></svg>